<svg id="icon1" xmlns="http://www.w3.org/2000/svg" width="56.967" height="56.967" viewBox="0 0 56.967 56.967">
  <path id="Path_25" data-name="Path 25" d="M18.478,32.949A13.471,13.471,0,1,1,31.949,19.478,13.486,13.486,0,0,1,18.478,32.949Zm0-23.944A10.473,10.473,0,1,0,28.951,19.478,10.485,10.485,0,0,0,18.478,9.005Z" transform="translate(10.005 9.005)" fill="#83bb26"/>
  <path id="Path_26" data-name="Path 26" d="M10.5,12.993a1.5,1.5,0,0,1-1.5-1.5V2.5a1.5,1.5,0,0,1,3,0v8.995A1.5,1.5,0,0,1,10.5,12.993Z" transform="translate(17.984 -1)" fill="#83bb26"/>
  <path id="Path_27" data-name="Path 27" d="M10.5,27.993a1.5,1.5,0,0,1-1.5-1.5V17.5a1.5,1.5,0,0,1,3,0v8.995A1.5,1.5,0,0,1,10.5,27.993Z" transform="translate(17.984 28.974)" fill="#83bb26"/>
  <path id="Path_28" data-name="Path 28" d="M10.494,13H1.5a1.5,1.5,0,1,1,0-3h8.995a1.5,1.5,0,1,1,0,3Z" transform="translate(0 16.984)" fill="#83bb26"/>
  <path id="Path_29" data-name="Path 29" d="M25.494,13H16.5a1.5,1.5,0,1,1,0-3h8.995a1.5,1.5,0,0,1,0,3Z" transform="translate(29.974 16.984)" fill="#83bb26"/>
  <path id="Path_30" data-name="Path 30" d="M9.5,11.993a1.506,1.506,0,0,1-1.061-.438l-6-6a1.5,1.5,0,0,1,2.12-2.12l6,6a1.5,1.5,0,0,1-1.061,2.558Z" transform="translate(3.996 2.998)" fill="#83bb26"/>
  <path id="Path_31" data-name="Path 31" d="M3.5,23.993a1.5,1.5,0,0,1-1.061-2.558l6-6a1.5,1.5,0,1,1,2.12,2.12l-6,6a1.493,1.493,0,0,1-1.061.438Z" transform="translate(3.996 26.977)" fill="#83bb26"/>
  <path id="Path_32" data-name="Path 32" d="M21.5,23.993a1.506,1.506,0,0,1-1.061-.438l-6-6a1.5,1.5,0,1,1,2.12-2.12l6,6a1.5,1.5,0,0,1-1.061,2.558Z" transform="translate(27.975 26.977)" fill="#83bb26"/>
  <path id="Path_33" data-name="Path 33" d="M15.5,11.993a1.5,1.5,0,0,1-1.061-2.558l6-6a1.5,1.5,0,1,1,2.12,2.12l-6,6a1.493,1.493,0,0,1-1.061.438Z" transform="translate(27.975 2.998)" fill="#83bb26"/>
</svg>
