<svg xmlns="http://www.w3.org/2000/svg" width="45.867" height="44.44" viewBox="0 0 45.867 44.44">
  <path id="icon3" d="M21.087.661A21.888,21.888,0,0,1,25.66.733,14.842,14.842,0,0,1,36.337,8.618,14.444,14.444,0,0,1,37.8,13.106a18.759,18.759,0,0,1,.039,4.155,22.159,22.159,0,0,1-2.334,6.81l-.309.573,2.07.019,2.068.021L42.7,34.791c1.852,5.558,3.368,10.131,3.368,10.165s-10.32.058-22.933.058S.2,44.987.2,44.956q1.668-5.087,3.368-10.165l3.37-10.106L9,24.664l2.066-.019-.414-.8a21.638,21.638,0,0,1-2.183-6.314,18.142,18.142,0,0,1,0-4.427A14.7,14.7,0,0,1,9.9,8.671a15.04,15.04,0,0,1,6.588-6.587A16.25,16.25,0,0,1,21.087.661Zm2.941,3.615a7.355,7.355,0,0,0-1.9.006A11.166,11.166,0,0,0,12.016,15.269a10.637,10.637,0,0,0,.387,2.884c1.055,4.163,4.441,9.321,9.467,14.423l1.263,1.283L24.4,32.576c5.636-5.726,9.15-11.439,9.77-15.886a11.064,11.064,0,0,0-2.985-8.981A10.925,10.925,0,0,0,24.027,4.276Zm-9.834,25.1-.739-.987-1.918,0-1.916,0L7.475,34.811c-1.18,3.539-2.144,6.46-2.144,6.491s8.011.058,17.8.058,17.8-.025,17.8-.058q-1.055-3.251-2.144-6.491l-2.146-6.433-1.916,0-1.918,0-.739.987a59.326,59.326,0,0,1-5.558,6.351,39.378,39.378,0,0,1-3.382,3.071,38.675,38.675,0,0,1-3.382-3.069A59.945,59.945,0,0,1,14.193,29.373Zm4.614-18.663c2.315-1.736,4.264-3.15,4.33-3.141S25.151,9,27.463,10.723l4.208,3.141-1.053,1.407c-.579.774-1.083,1.44-1.119,1.479s-.206-.029-.416-.179l-.352-.253V22.78H17.614V19.554c0-1.774-.021-3.226-.045-3.226a2.267,2.267,0,0,0-.391.247c-.206.148-.371.22-.41.175s-.54-.705-1.119-1.479L14.6,13.864Zm5.267,2.1c-.505-.373-.933-.68-.948-.68s-.433.307-.925.682l-.894.678-.021,2.779-.019,2.779H25l0-2.779,0-2.779Z" transform="translate(-0.2 -0.574)" fill="#83bb26"/>
</svg>
