<svg xmlns="http://www.w3.org/2000/svg" width="55.899" height="33.54" viewBox="0 0 55.899 33.54">
  <path id="icon5" d="M15.907,7a11.171,11.171,0,0,0-6.58,20.205A14.913,14.913,0,0,0,1,40.54H4.727a11.18,11.18,0,0,1,22.36,0h3.727a11.18,11.18,0,0,1,22.36,0H56.9a14.913,14.913,0,0,0-8.327-13.334,11.18,11.18,0,1,0-13.16,0,15.023,15.023,0,0,0-6.463,6.114,15.023,15.023,0,0,0-6.463-6.114A11.171,11.171,0,0,0,15.907,7Zm0,3.727A7.453,7.453,0,1,1,8.453,18.18,7.421,7.421,0,0,1,15.907,10.727Zm26.086,0A7.453,7.453,0,1,1,34.54,18.18,7.421,7.421,0,0,1,41.993,10.727Z" transform="translate(-1 -7)" fill="#83bb26"/>
</svg>
