<svg xmlns="http://www.w3.org/2000/svg" width="55.486" height="41.501" viewBox="0 0 55.486 41.501">
  <path id="icon4" d="M43.164,5.946C46.1,5.2,48.56,4.6,48.639,4.613A6.749,6.749,0,0,1,49.3,6.7c.195.736.37,1.478.526,2.224,0,.114-.856.363-3.7,1.071l-3.7.923v7.234l.691,2.419L43.806,23c0,.007.634.037,1.407.067a10.04,10.04,0,0,1,4.376,1.049,10.809,10.809,0,0,1,3.228,2.253,11.541,11.541,0,1,1-19.674,8.172,11.621,11.621,0,0,1,3.512-8.276A15.331,15.331,0,0,1,39.2,24.376c.146-.089.111-.274-.355-1.876l-.516-1.777H36.769L32.642,27.93l-4.127,7.207L28.508,36l0,.864H23.68l-.158.568A12.2,12.2,0,0,1,21.076,42.1,11.549,11.549,0,0,1,7.382,45a10.657,10.657,0,0,1-3.221-2.261A11.5,11.5,0,0,1,1.318,31a11.944,11.944,0,0,1,4.354-5.9,13.91,13.91,0,0,1,3.744-1.74,8.519,8.519,0,0,1,2.846-.267,9.066,9.066,0,0,1,2.747.217c.479.121.889.22.906.22q.792-1.3,1.533-2.621l1.5-2.621-.775-3.426L17.4,11.443l-1.358-.027-1.358-.027V6.852H26.133v4.542H24.159a6.732,6.732,0,0,0-1.975.106q.448,2.162.953,4.312l.057.222H37.781l.027-4.369L37.833,7.3Zm3.715,22.031a7.692,7.692,0,0,0-1.175-.259l-.545-.064.072.279q.418,1.525.854,3.043c.429,1.52.782,2.811.782,2.871a35.69,35.69,0,0,1-4.25,1.311c-.121.035-.326-.573-1.037-3.073-.486-1.715-.913-3.117-.953-3.117a7.881,7.881,0,0,0-1.755,1.841,6.253,6.253,0,0,0-1.061,3.441,6.268,6.268,0,0,0,.657,3.357,7.59,7.59,0,0,0,3.058,3.154,6.3,6.3,0,0,0,3.169.7,6.3,6.3,0,0,0,3.169-.7,7.376,7.376,0,0,0,3.6-4.685,8.2,8.2,0,0,0-.2-3.725A7.212,7.212,0,0,0,46.879,27.977Zm-33.393-.234a7.988,7.988,0,0,0-2.014-.052,7.011,7.011,0,0,0-5.736,4.66,8.2,8.2,0,0,0-.2,3.725,7.376,7.376,0,0,0,3.6,4.685,6.3,6.3,0,0,0,3.169.7,6.3,6.3,0,0,0,3.169-.7,8.556,8.556,0,0,0,2.177-1.789,7.4,7.4,0,0,0,1.17-2,29.864,29.864,0,0,0-4.393-.109H10.041v-4.64h.948L12.257,30C12.953,28.777,13.506,27.763,13.486,27.743Zm17.88-6.98c0-.052-1.757-.089-4.226-.089H22.915l-1.451,2.545c-.8,1.4-1.451,2.589-1.451,2.641a2.677,2.677,0,0,0,.508.59,12.157,12.157,0,0,1,2.885,4.887l.237.839h1.229l3.248-5.662C29.9,23.4,31.366,20.812,31.366,20.763ZM18.01,30.621a5.525,5.525,0,0,0-.425-.568c-.032,0-1.227,2.076-1.227,2.133a9.727,9.727,0,0,0,1.242.039H18.84L18.773,32A5.327,5.327,0,0,0,18.01,30.621Z" transform="translate(-0.76 -4.613)" fill="#83bb26"/>
</svg>
