<svg xmlns="http://www.w3.org/2000/svg" width="45.492" height="45.633" viewBox="0 0 45.492 45.633">
  <path id="icon6" d="M3.353.531C5.269.479,14.877.473,16.193.523L17.56.576V4.27l-.931.024-.931.022-.022,1.843A13.926,13.926,0,0,0,15.715,8c.034,0,1.736-1.375,3.782-3.051S23.238,1.9,23.264,1.9q5.718,4.619,11.4,9.283l11.351,9.281V25.2H42.287V42.318h3.725v3.7l-2.794.052c-1.538.03-10.515.053-19.952.053S4.851,46.1,3.314,46.068L.52,46.017v-3.7L2.4,42.3l1.882-.022.02-8.54.02-8.54H.52V20.463l1.9-1.559,1.9-1.557L4.3,10.83l-.02-6.515-.931-.022L2.422,4.27V.557ZM38.483,42.238V25.2H8.049v17.04H25.168V30.905h7.608V42.238ZM32.238,14.107c-4.876-3.986-8.9-7.258-8.942-7.272s-4.078,3.247-8.972,7.246L5.43,21.355l8.918.02c4.906.012,12.93.012,17.836,0l8.918-.02ZM13.755,38.513V30.905h7.608v7.608Zm-1.906-27.3,0-6.855h-3.8V9.277c0,4.333.014,4.918.119,4.878.065-.026.919-.7,1.9-1.5Z" transform="translate(-0.52 -0.489)" fill="#83bb26"/>
</svg>
