<svg xmlns="http://www.w3.org/2000/svg" width="41.829" height="41.83" viewBox="0 0 41.829 41.83">
  <path id="icon2" d="M0,2.394A1.394,1.394,0,0,1,1.394,1H5.577A1.394,1.394,0,0,1,6.93,2.057l1.129,4.52H40.436a1.394,1.394,0,0,1,1.369,1.651l-4.183,22.31a1.394,1.394,0,0,1-1.369,1.138h-25.1a1.394,1.394,0,0,1-1.369-1.138L5.605,8.27,4.49,3.789h-3.1A1.394,1.394,0,0,1,0,2.394ZM8.651,9.366l3.662,19.521H35.1L38.757,9.366Zm5.293,22.31a5.577,5.577,0,1,0,5.577,5.577A5.577,5.577,0,0,0,13.943,31.676Zm19.521,0a5.577,5.577,0,1,0,5.577,5.577A5.577,5.577,0,0,0,33.464,31.676ZM13.943,34.464a2.789,2.789,0,1,1-2.789,2.789A2.789,2.789,0,0,1,13.943,34.464Zm19.521,0a2.789,2.789,0,1,1-2.789,2.789A2.789,2.789,0,0,1,33.464,34.464Z" transform="translate(0 -1)" fill="#83bb26"/>
</svg>
